<?xml version="1.0" encoding="UTF-8"?>
<svg version="1.1" xmlns="http://www.w3.org/2000/svg" width="800" height="800">
<path d="M0 0 C264 0 528 0 800 0 C800 264 800 528 800 800 C536 800 272 800 0 800 C0 536 0 272 0 0 Z " fill="#0091FF" transform="translate(0,0)"/>
<g transform="translate(10.9,20)">
<path d="M0 0 C2.33671559 0.00084721 4.67343197 0.00036929 7.01014709 -0.00132751 C13.32542151 -0.0021852 19.64052359 0.01540393 25.95575809 0.03639436 C31.89549966 0.05329129 37.83523497 0.05626848 43.77499732 0.05934998 C55.53150838 0.06589852 67.28795661 0.08581607 79.04443359 0.11425781 C90.45751636 0.14183991 101.87058199 0.16305311 113.28369141 0.17578125 C113.98845668 0.17656942 114.69322195 0.17735759 115.41934374 0.17816965 C118.95532091 0.18208506 122.49129819 0.18587611 126.02727556 0.18960536 C155.31216949 0.22065146 184.59700204 0.27366815 213.88183594 0.34057617 C213.88183594 2.32057617 213.88183594 4.30057617 213.88183594 6.34057617 C213.22183594 6.34057617 212.56183594 6.34057617 211.88183594 6.34057617 C211.76066406 7.2815918 211.63949219 8.22260742 211.51464844 9.19213867 C211.34707031 10.43737305 211.17949219 11.68260742 211.00683594 12.96557617 C210.76320313 14.81022461 210.76320313 14.81022461 210.51464844 16.69213867 C209.92572037 20.08756347 209.02392252 23.09852394 207.88183594 26.34057617 C207.51263403 28.33426648 207.16858011 30.33336694 206.88183594 32.34057617 C206.22183594 32.34057617 205.56183594 32.34057617 204.88183594 32.34057617 C204.81996094 33.61932617 204.75808594 34.89807617 204.69433594 36.21557617 C203.60658801 44.41552211 201.09572653 52.37057006 198.88183594 60.34057617 C180.40183594 60.34057617 161.92183594 60.34057617 142.88183594 60.34057617 C142.55183594 62.65057617 142.22183594 64.96057617 141.88183594 67.34057617 C141.23339844 69.53588867 141.23339844 69.53588867 140.50683594 71.46557617 C138.78553598 76.32866634 137.75029079 81.27462011 136.72558594 86.32495117 C135.88183594 89.34057617 135.88183594 89.34057617 134.48193359 91.61035156 C131.67595394 96.39815603 130.18069397 101.73942501 128.43798828 106.98583984 C127.76328153 109.00875094 127.071236 111.02514812 126.37792969 113.04174805 C124.21678635 119.44053565 122.43645601 125.53435218 122.01806641 132.32226562 C121.66294798 137.58349143 119.73621344 142.70017137 117.31933594 147.34057617 C115.31831395 151.51662206 114.64512042 155.79678853 113.88183594 160.34057617 C113.22183594 160.34057617 112.56183594 160.34057617 111.88183594 160.34057617 C111.91277344 162.10401367 111.91277344 162.10401367 111.94433594 163.90307617 C111.95130855 167.81471084 111.52433936 171.48555561 110.88183594 175.34057617 C110.22183594 175.34057617 109.56183594 175.34057617 108.88183594 175.34057617 C108.88183594 182.93057617 108.88183594 190.52057617 108.88183594 198.34057617 C109.54183594 198.34057617 110.20183594 198.34057617 110.88183594 198.34057617 C111.27371094 199.43370117 111.66558594 200.52682617 112.06933594 201.65307617 C113.6361704 205.30902325 115.24133991 206.60700663 118.88183594 208.34057617 C119.64496094 208.85233398 120.40808594 209.3640918 121.19433594 209.89135742 C126.64340801 212.82973786 132.91606853 211.93058295 138.82714844 210.75463867 C146.14191697 208.53372009 150.7006941 204.70574974 154.88183594 198.34057617 C156.50456526 195.03535695 157.69828762 191.8419066 158.88183594 188.34057617 C163.50183594 188.34057617 168.12183594 188.34057617 172.88183594 188.34057617 C172.88183594 189.33057617 172.88183594 190.32057617 172.88183594 191.34057617 C172.22183594 191.34057617 171.56183594 191.34057617 170.88183594 191.34057617 C170.77871094 192.14495117 170.67558594 192.94932617 170.56933594 193.77807617 C169.72871195 198.13403681 168.36515015 202.16742423 166.88183594 206.34057617 C166.64335938 207.03666992 166.40488281 207.73276367 166.15917969 208.44995117 C164.51736834 213.07932088 162.42218359 217.13586282 159.88183594 221.34057617 C159.22183594 221.34057617 158.56183594 221.34057617 157.88183594 221.34057617 C157.44871094 222.98026367 157.44871094 222.98026367 157.00683594 224.65307617 C155.88183594 228.34057617 155.88183594 228.34057617 153.88183594 231.34057617 C152.89183594 231.34057617 151.90183594 231.34057617 150.88183594 231.34057617 C150.62144531 231.92452148 150.36105469 232.5084668 150.09277344 233.11010742 C148.804001 235.48394311 147.40675054 237.11571671 145.50683594 239.02807617 C144.92160156 239.63006836 144.33636719 240.23206055 143.73339844 240.85229492 C141.7557468 242.4419263 140.36041804 242.93111878 137.88183594 243.34057617 C137.88183594 244.00057617 137.88183594 244.66057617 137.88183594 245.34057617 C136.23183594 245.67057617 134.58183594 246.00057617 132.88183594 246.34057617 C132.88183594 247.00057617 132.88183594 247.66057617 132.88183594 248.34057617 C128.42683594 249.33057617 128.42683594 249.33057617 123.88183594 250.34057617 C123.88183594 251.00057617 123.88183594 251.66057617 123.88183594 252.34057617 C122.89183594 252.34057617 121.90183594 252.34057617 120.88183594 252.34057617 C120.88183594 253.00057617 120.88183594 253.66057617 120.88183594 254.34057617 C112.35571737 256.26572266 104.1652255 256.64511013 95.44433594 256.59057617 C93.59485352 256.60217773 93.59485352 256.60217773 91.70800781 256.61401367 C83.90589961 256.59752744 76.52873153 255.89204338 68.88183594 254.34057617 C68.88183594 253.68057617 68.88183594 253.02057617 68.88183594 252.34057617 C68.15996094 252.25807617 67.43808594 252.17557617 66.69433594 252.09057617 C63.28531338 251.18150349 61.55500417 249.61276917 58.88183594 247.34057617 C57.69460938 246.66188477 57.69460938 246.66188477 56.48339844 245.96948242 C49.69356707 241.71819161 44.69919882 235.14270301 42.88183594 227.34057617 C42.36779703 224.58345838 42.04316571 222.11639725 41.88183594 219.34057617 C41.81738281 218.45241211 41.75292969 217.56424805 41.68652344 216.64916992 C41.21765051 204.4115865 43.90654241 191.88421698 47.88183594 180.34057617 C48.27333079 178.93150136 48.65541389 177.51979247 49.03027344 176.10620117 C49.23136719 175.36756836 49.43246094 174.62893555 49.63964844 173.86791992 C50.0545282 172.33706612 50.45801084 170.8030823 50.85058594 169.26635742 C52.40291986 163.67599032 52.40291986 163.67599032 55.04589844 161.82495117 C55.9546875 161.58518555 55.9546875 161.58518555 56.88183594 161.34057617 C56.81996094 160.53620117 56.75808594 159.73182617 56.69433594 158.90307617 C56.89521968 155.086285 57.80372864 152.23041124 59.08105469 148.66479492 C60.24998856 145.27203564 61.05674991 141.83132476 61.88183594 138.34057617 C62.54183594 138.34057617 63.20183594 138.34057617 63.88183594 138.34057617 C64.02878906 137.10694336 64.02878906 137.10694336 64.17871094 135.84838867 C65.17056224 128.44370569 66.76060755 122.11454648 69.88183594 115.34057617 C70.5919331 113.77887698 71.30031088 112.21639467 72.00683594 110.65307617 C72.49796875 109.56639648 72.49796875 109.56639648 72.99902344 108.45776367 C74.24396655 105.47210365 75.08216545 102.47261892 75.88183594 99.34057617 C76.54183594 99.34057617 77.20183594 99.34057617 77.88183594 99.34057617 C78.00300781 98.44854492 78.12417969 97.55651367 78.24902344 96.63745117 C78.50039063 94.88174805 78.50039063 94.88174805 78.75683594 93.09057617 C79.00046875 91.3503418 79.00046875 91.3503418 79.24902344 89.57495117 C79.80004025 86.75864304 80.43980075 84.7884006 81.88183594 82.34057617 C82.54183594 82.34057617 83.20183594 82.34057617 83.88183594 82.34057617 C83.99140625 81.55553711 84.10097656 80.77049805 84.21386719 79.96166992 C85.12331458 73.9356567 86.20384078 68.81300106 88.88183594 63.34057617 C89.21183594 62.35057617 89.54183594 61.36057617 89.88183594 60.34057617 C72.39183594 60.34057617 54.90183594 60.34057617 36.88183594 60.34057617 C35.89183594 64.30057617 34.90183594 68.26057617 33.88183594 72.34057617 C33.22183594 72.34057617 32.56183594 72.34057617 31.88183594 72.34057617 C31.79933594 73.55745117 31.71683594 74.77432617 31.63183594 76.02807617 C30.95233122 82.37688142 28.88725149 88.30567447 26.88183594 94.34057617 C26.22183594 94.34057617 25.56183594 94.34057617 24.88183594 94.34057617 C24.77871094 95.49557617 24.67558594 96.65057617 24.56933594 97.84057617 C24.10545161 101.65249519 23.01831549 104.83516312 21.58105469 108.37573242 C20.52652073 111.33903174 20.20697049 114.21928445 19.88183594 117.34057617 C19.22183594 117.34057617 18.56183594 117.34057617 17.88183594 117.34057617 C17.75808594 118.45432617 17.63433594 119.56807617 17.50683594 120.71557617 C16.46931566 128.88604838 14.68836926 136.5945442 11.88183594 144.34057617 C11.22183594 144.34057617 10.56183594 144.34057617 9.88183594 144.34057617 C9.77871094 145.47495117 9.67558594 146.60932617 9.56933594 147.77807617 C8.99073093 152.53454968 7.53109897 156.85955963 5.88183594 161.34057617 C5.22183594 161.34057617 4.56183594 161.34057617 3.88183594 161.34057617 C3.75808594 162.45432617 3.63433594 163.56807617 3.50683594 164.71557617 C2.89726052 169.64518608 1.90709909 174.48301872 0.88183594 179.34057617 C0.22183594 179.34057617 -0.43816406 179.34057617 -1.11816406 179.34057617 C-1.44816406 181.65057617 -1.77816406 183.96057617 -2.11816406 186.34057617 C-2.77816406 186.34057617 -3.43816406 186.34057617 -4.11816406 186.34057617 C-4.22128906 187.16557617 -4.32441406 187.99057617 -4.43066406 188.84057617 C-5.23462462 192.93346629 -6.58168564 196.46597842 -8.11816406 200.34057617 C-8.77816406 200.34057617 -9.43816406 200.34057617 -10.11816406 200.34057617 C-10.22128906 200.97995117 -10.32441406 201.61932617 -10.43066406 202.27807617 C-13.82773222 217.41047069 -22.39504296 237.84418562 -35.11816406 247.34057617 C-45.60896161 253.34057617 -45.60896161 253.34057617 -51.11816406 253.34057617 C-51.11816406 254.00057617 -51.11816406 254.66057617 -51.11816406 255.34057617 C-55.98658705 257.90130593 -60.70376886 257.60213736 -66.05566406 257.52807617 C-66.93673828 257.52743164 -67.8178125 257.52678711 -68.72558594 257.52612305 C-73.29639019 257.49530864 -77.62225947 257.26642143 -82.11816406 256.34057617 C-82.11816406 255.68057617 -82.11816406 255.02057617 -82.11816406 254.34057617 C-83.20097656 254.00026367 -83.20097656 254.00026367 -84.30566406 253.65307617 C-87.68398733 252.07652531 -89.55613144 250.03071042 -92.11816406 247.34057617 C-93.04628906 246.61870117 -93.97441406 245.89682617 -94.93066406 245.15307617 C-95.65253906 244.55495117 -96.37441406 243.95682617 -97.11816406 243.34057617 C-97.11816406 242.68057617 -97.11816406 242.02057617 -97.11816406 241.34057617 C-97.77816406 241.34057617 -98.43816406 241.34057617 -99.11816406 241.34057617 C-103.08184057 229.35517339 -103.08184057 219.32597895 -99.11816406 207.34057617 C-98.45816406 207.34057617 -97.79816406 207.34057617 -97.11816406 207.34057617 C-96.89128906 206.61870117 -96.66441406 205.89682617 -96.43066406 205.15307617 C-93.94716693 199.83129661 -88.95038623 196.25461639 -84.61816406 192.40307617 C-80.74487805 188.90462429 -77.3230096 185.44678451 -74.11816406 181.34057617 C-72.43066406 179.46557617 -72.43066406 179.46557617 -71.11816406 178.34057617 C-70.45816406 178.34057617 -69.79816406 178.34057617 -69.11816406 178.34057617 C-68.85003906 177.78370117 -68.58191406 177.22682617 -68.30566406 176.65307617 C-64.83553411 169.89545468 -64.83553411 169.89545468 -61.79003906 167.53979492 C-58.88617953 165.14962984 -56.90223354 162.68248909 -54.68066406 159.65307617 C-53.96007812 158.67983398 -53.23949219 157.7065918 -52.49707031 156.70385742 C-42.48157344 142.7159243 -32.30358715 127.86157531 -27.11816406 111.34057617 C-26.45816406 111.34057617 -25.79816406 111.34057617 -25.11816406 111.34057617 C-24.98925781 110.75147461 -24.86035156 110.16237305 -24.72753906 109.55541992 C-23.96354155 106.77858281 -22.62147915 104.39387415 -21.30566406 101.84448242 C-18.91964944 96.81344502 -17.0581294 91.55622068 -15.11816406 86.34057617 C-14.45816406 86.34057617 -13.79816406 86.34057617 -13.11816406 86.34057617 C-12.93253906 84.39151367 -12.93253906 84.39151367 -12.74316406 82.40307617 C-12.21953078 77.62207665 -11.25502571 73.00943517 -10.11816406 68.34057617 C-9.45816406 68.34057617 -8.79816406 68.34057617 -8.11816406 68.34057617 C-8.11816406 67.35057617 -8.11816406 66.36057617 -8.11816406 65.34057617 C-7.45816406 65.34057617 -6.79816406 65.34057617 -6.11816406 65.34057617 C-6.11816406 63.69057617 -6.11816406 62.04057617 -6.11816406 60.34057617 C-18.32816406 60.34057617 -30.53816406 60.34057617 -43.11816406 60.34057617 C-43.11816406 61.00057617 -43.11816406 61.66057617 -43.11816406 62.34057617 C-44.25253906 62.51073242 -45.38691406 62.68088867 -46.55566406 62.85620117 C-63.91805514 65.58719069 -74.06536537 72.2457228 -85.11816406 86.34057617 C-85.44816406 87.00057617 -85.77816406 87.66057617 -86.11816406 88.34057617 C-92.99316406 87.46557617 -92.99316406 87.46557617 -94.11816406 86.34057617 C-94.05351767 84.23369146 -93.91608629 82.12884752 -93.74316406 80.02807617 C-93.6078125 78.30137695 -93.6078125 78.30137695 -93.46972656 76.53979492 C-93.19335462 74.02481027 -92.82313597 71.76018316 -92.11816406 69.34057617 C-91.45816406 69.34057617 -90.79816406 69.34057617 -90.11816406 69.34057617 C-89.78816406 67.03057617 -89.45816406 64.72057617 -89.11816406 62.34057617 C-88.45816406 62.34057617 -87.79816406 62.34057617 -87.11816406 62.34057617 C-87.00859375 61.65350586 -86.89902344 60.96643555 -86.78613281 60.25854492 C-86.54830078 58.90696289 -86.54830078 58.90696289 -86.30566406 57.52807617 C-86.15484375 56.63475586 -86.00402344 55.74143555 -85.84863281 54.82104492 C-85.03465517 52.0570032 -84.17005958 51.27623131 -82.11816406 49.34057617 C-81.21280559 47.65881236 -80.36101433 45.94745793 -79.55566406 44.21557617 C-77.33912724 39.45105776 -77.33912724 39.45105776 -75.11816406 38.34057617 C-73.53491062 35.88674671 -72.13081848 33.36358099 -70.72363281 30.80541992 C-67.70893766 25.4321203 -65.38710319 22.4540402 -60.11816406 19.34057617 C-59.41878874 18.02410498 -58.75087273 16.69035466 -58.11816406 15.34057617 C-54.0431705 11.57238714 -49.5747128 9.4800088 -44.55566406 7.27807617 C-43.82025391 6.93969727 -43.08484375 6.60131836 -42.32714844 6.25268555 C-28.31595185 0.03484123 -15.06887248 -0.07665624 0 0 Z " fill="#FCFDFF" transform="translate(452.1181640625,250.659423828125)"/>
<path d="M0 0 C0.87011719 0.00451172 1.74023438 0.00902344 2.63671875 0.01367188 C4.75784293 0.0253264 6.8789311 0.04325643 9 0.0625 C8.42043292 5.0837051 7.60141373 9.25825881 6 14.0625 C5.47219889 16.82834148 5.00427707 19.59807739 4.5625 22.37890625 C3.98831357 25.11825403 3.07726975 27.48567076 2 30.0625 C1.63128912 31.72169896 1.28718326 33.3872643 1 35.0625 C0.34 35.0625 -0.32 35.0625 -1 35.0625 C-1.37125 36.8878125 -1.37125 36.8878125 -1.75 38.75 C-2.57451688 42.46605175 -3.59428515 46.06144467 -4.75 49.6875 C-6.77727418 56.13791784 -8.53329363 62.64800403 -10.25 69.1875 C-10.52038086 70.2079541 -10.79076172 71.2284082 -11.06933594 72.27978516 C-11.44493652 73.72297119 -11.44493652 73.72297119 -11.828125 75.1953125 C-12.0540332 76.06043457 -12.27994141 76.92555664 -12.51269531 77.81689453 C-13.10603397 80.16814901 -13.10603397 80.16814901 -13 83.0625 C-9.86155714 79.72092168 -7.32205388 76.81395905 -5.5 72.5625 C-3.93900454 68.92017726 -2.17316849 66.69010177 0.5 63.8359375 C2.29186951 61.71742511 3.58467055 59.44844192 5 57.0625 C6.33556092 55.17420199 7.69041709 53.29942933 9.0625 51.4375 C11.09667983 48.67222761 13.09555992 45.91916011 15 43.0625 C15.66 43.0625 16.32 43.0625 17 43.0625 C17.04125 42.340625 17.0825 41.61875 17.125 40.875 C18.39465113 36.7939785 20.57722785 35.57718974 24 33.0625 C24.66 32.7325 25.32 32.4025 26 32.0625 C26.4021875 30.9178125 26.4021875 30.9178125 26.8125 29.75 C28.55341618 25.81003181 31.31212302 23.8341009 35.1875 22.0625 C37.15162095 21.20230633 37.15162095 21.20230633 37.9375 19.1875 C40.34810027 14.36629946 45.31775628 12.26028787 50 10.0625 C53.15611713 8.51538376 56.07292508 7.01388328 59 5.0625 C69.43329152 1.25594624 81.40087916 -1.64822037 92 3.0625 C95.52342757 5.5190108 98.90780052 8.07606992 102 11.0625 C102 11.7225 102 12.3825 102 13.0625 C102.66 13.0625 103.32 13.0625 104 13.0625 C104.33 15.3725 104.66 17.6825 105 20.0625 C105.66 20.0625 106.32 20.0625 107 20.0625 C107 27.3225 107 34.5825 107 42.0625 C106.34 42.0625 105.68 42.0625 105 42.0625 C104.92652344 43.40054688 104.92652344 43.40054688 104.8515625 44.765625 C104.77679688 45.93609375 104.70203125 47.1065625 104.625 48.3125 C104.55539062 49.47265625 104.48578125 50.6328125 104.4140625 51.828125 C104.02782753 54.84513021 103.43861432 56.45981607 102 59.0625 C101.6211059 60.50966498 101.28842466 61.96962451 101 63.4375 C100.27523244 67.10016464 99.19521337 70.52555377 98 74.0625 C97.36370905 76.24674245 96.73926464 78.43446121 96.125 80.625 C90.86429909 99.15523007 90.86429909 99.15523007 88 106.0625 C87.34 106.0625 86.68 106.0625 86 106.0625 C85.01 112.9925 84.02 119.9225 83 127.0625 C82.34 127.0625 81.68 127.0625 81 127.0625 C80.8453125 128.980625 80.8453125 128.980625 80.6875 130.9375 C80.0151538 136.97914618 78.3142147 142.6431631 76.13671875 148.30859375 C73.87651314 154.31795557 73.67757493 159.67370699 74 166.0625 C76.64 165.7325 79.28 165.4025 82 165.0625 C82.33 164.0725 82.66 163.0825 83 162.0625 C85.35638501 159.50974957 87.61674468 157.32119734 90.5 155.375 C93.6943126 152.42026084 95.09844473 149.23073534 96.88671875 145.3046875 C98 143.0625 98 143.0625 100 141.0625 C101.32 141.0625 102.64 141.0625 104 141.0625 C104.33 141.7225 104.66 142.3825 105 143.0625 C107.01669827 144.19600534 107.01669827 144.19600534 109 145.0625 C108.48101981 149.64961524 106.68800257 152.20804247 103.875 155.8125 C103.47120117 156.33400635 103.06740234 156.8555127 102.65136719 157.39282227 C101.44047027 158.9542294 100.22033046 160.50845458 99 162.0625 C98.34773437 162.92230469 97.69546875 163.78210938 97.0234375 164.66796875 C93.91225712 168.75910242 90.74704 172.52362889 87 176.0625 C86.443125 176.660625 85.88625 177.25875 85.3125 177.875 C84 179.0625 84 179.0625 82 179.0625 C81.67 180.0525 81.34 181.0425 81 182.0625 C73.71093242 190.28706289 62.68057496 195.32771195 51.77050781 196.2512207 C49.46842204 196.3289272 47.17818256 196.3358037 44.875 196.3125 C44.10285156 196.32023438 43.33070313 196.32796875 42.53515625 196.3359375 C35.37420483 196.31153903 28.70439693 194.62601754 23 190.0625 C17.91013928 184.84475333 17.53216273 178.80983299 17.5 171.875 C17.61058046 163.65653113 18.8242613 156.0013561 21 148.0625 C21.66 148.0625 22.32 148.0625 23 148.0625 C23.08636719 147.39347656 23.17273438 146.72445312 23.26171875 146.03515625 C24.31017444 138.86910587 26.0640832 132.13327995 28.17578125 125.22753906 C29.58160758 120.59793539 30.74782666 116.01787159 31.54296875 111.23828125 C32.1339879 108.42462596 33.0697349 105.78225688 34 103.0625 C35.01100729 99.77277705 36.00644519 96.47862514 37 93.18359375 C38 90.0625 38 90.0625 39.0703125 87.5234375 C40.11820176 84.74961299 40.49764888 82.18794799 40.875 79.25 C41.44993752 75.54883973 42.03958608 72.51933105 43.875 69.25 C48.12728192 61.62466739 51.1945939 50.76596982 50 42.0625 C46.76657238 39.90688159 45.17293116 39.61408413 41.37109375 40.20703125 C33.33303002 43.10709049 21.85129692 53.35990616 18 61.0625 C16.34467377 62.08116229 14.67739862 63.08060813 13 64.0625 C10.87214586 65.92302758 10.87214586 65.92302758 10.07421875 68.4296875 C8.96106987 71.15791422 7.68766633 72.93043481 5.8125 75.1875 C2.41045913 79.43121002 -0.4879516 83.86720278 -3.3671875 88.4765625 C-8.59436959 96.75501835 -8.59436959 96.75501835 -11.56640625 99.51953125 C-13.83560939 101.9618616 -14.22122713 104.8875029 -15 108.0625 C-15.66 108.0625 -16.32 108.0625 -17 108.0625 C-17.37125 109.0525 -17.37125 109.0525 -17.75 110.0625 C-18.7295161 112.41333865 -19.77467339 114.61617589 -20.9375 116.875 C-22.95487623 120.84175101 -24.50378893 124.873109 -26 129.0625 C-26.66 129.0625 -27.32 129.0625 -28 129.0625 C-28 129.7225 -28 130.3825 -28 131.0625 C-28.66 131.0625 -29.32 131.0625 -30 131.0625 C-30.33 134.3625 -30.66 137.6625 -31 141.0625 C-31.66 141.0625 -32.32 141.0625 -33 141.0625 C-33.18175781 142.59970703 -33.18175781 142.59970703 -33.3671875 144.16796875 C-33.53610459 145.52868979 -33.7053952 146.8893645 -33.875 148.25 C-33.95363281 148.92353516 -34.03226562 149.59707031 -34.11328125 150.29101562 C-34.60815009 154.19286612 -35.4596154 157.46018326 -37 161.0625 C-37.37361479 162.69965926 -37.70742601 164.34643448 -38 166 C-38.69939291 169.94032973 -39.70194406 173.16833217 -41 177.0625 C-42.65 182.6725 -44.3 188.2825 -46 194.0625 C-63.82 194.0625 -81.64 194.0625 -100 194.0625 C-98.87707062 183.95613557 -98.87707062 183.95613557 -97.5625 179.9375 C-96.68156631 177.18932409 -95.8498944 174.48352126 -95.125 171.6875 C-94.13007581 168.48163315 -92.92829576 165.62025171 -91.5625 162.5625 C-89.02746106 156.65482154 -87.87901757 150.84097595 -86.75 144.53515625 C-85.93092834 140.74268384 -84.61717645 137.67954735 -82.90234375 134.23046875 C-81.54163024 130.961222 -81.12550029 127.6274336 -80.6875 124.12890625 C-80.06771855 121.36454014 -79.23985191 119.08872555 -78.15625 116.484375 C-75.76882445 110.69734595 -74.12515814 104.78807694 -72.5 98.75 C-71.89320772 96.53610693 -71.28514762 94.32256094 -70.67578125 92.109375 C-70.38783691 91.06201172 -70.09989258 90.01464844 -69.80322266 88.93554688 C-68.55292165 84.46334557 -67.17193772 80.03855758 -65.77734375 75.609375 C-64.71293874 72.12197768 -63.8349826 68.61117605 -63 65.0625 C-62.34 65.0625 -61.68 65.0625 -61 65.0625 C-60.95101562 64.27488281 -60.90203125 63.48726563 -60.8515625 62.67578125 C-59.4266118 41.91572359 -59.4266118 41.91572359 -57 37.0625 C-56.59428219 34.00802452 -56.49157273 31.10747653 -57 28.0625 C-61.17845538 24.44870075 -65.82457122 23.90366131 -71.1875 23.5 C-72.27417969 23.41621094 -73.36085937 23.33242188 -74.48046875 23.24609375 C-75.31191406 23.18550781 -76.14335937 23.12492187 -77 23.0625 C-76.67 19.7625 -76.34 16.4625 -76 13.0625 C-66.22321429 9.98214286 -66.22321429 9.98214286 -61.9375 9.4375 C-59.11519239 9.38164978 -59.11519239 9.38164978 -58 8.0625 C-55.65147862 7.71007372 -53.29562019 7.40611581 -50.9375 7.125 C-44.94178753 6.40433536 -44.94178753 6.40433536 -39.0625 5.0625 C-36.37654409 4.35508489 -33.75785781 3.85177804 -31 3.52734375 C-30.27288818 3.43904297 -29.54577637 3.35074219 -28.79663086 3.25976562 C-27.32143868 3.0882429 -25.84568437 2.92147984 -24.36938477 2.75976562 C-20.8877812 2.64421294 -20.8877812 2.64421294 -18 1.0625 C-11.97005228 0.0826335 -6.09850058 -0.06089133 0 0 Z " fill="#FBFCFF" transform="translate(211,306.9375)"/>
<path d="M0 0 C0.87011719 0.00451172 1.74023438 0.00902344 2.63671875 0.01367188 C4.75784293 0.0253264 6.8789311 0.04325643 9 0.0625 C8.67 1.3825 8.34 2.7025 8 4.0625 C8 3.0725 8 2.0825 8 1.0625 C5.29087219 1.17714015 2.58320339 1.30387154 -0.125 1.4375 C-1.26582031 1.48390625 -1.26582031 1.48390625 -2.4296875 1.53125 C-5.77927839 1.7045047 -8.62015063 1.93500548 -11.81640625 3.0078125 C-16.70169726 4.62625247 -21.71227822 4.99476889 -26.8125 5.5625 C-36.31129626 6.63162858 -45.24624621 8.0323609 -54.3125 11.125 C-60.54078385 13.1007174 -66.48869727 13.82785846 -73 14.0625 C-73.33 16.3725 -73.66 18.6825 -74 21.0625 C-72.84371094 21.04509766 -72.84371094 21.04509766 -71.6640625 21.02734375 C-70.66117188 21.01832031 -69.65828125 21.00929688 -68.625 21 C-67.62726563 20.98839844 -66.62953125 20.97679687 -65.6015625 20.96484375 C-63 21.0625 -63 21.0625 -61 22.0625 C-61 22.7225 -61 23.3825 -61 24.0625 C-60.401875 24.165625 -59.80375 24.26875 -59.1875 24.375 C-56.55231109 25.20320223 -55.66202765 25.85577421 -54 28.0625 C-52.32967335 38.26541196 -55.07101889 46.82939439 -59 56.0625 C-60.30574977 52.32915911 -59.7601248 49.29175049 -59.125 45.4375 C-58.94195312 44.29023438 -58.75890625 43.14296875 -58.5703125 41.9609375 C-58 39.0625 -58 39.0625 -57 37.0625 C-56.59428219 34.00802452 -56.49157273 31.10747653 -57 28.0625 C-61.17845538 24.44870075 -65.82457122 23.90366131 -71.1875 23.5 C-72.27417969 23.41621094 -73.36085937 23.33242188 -74.48046875 23.24609375 C-75.72763672 23.15521484 -75.72763672 23.15521484 -77 23.0625 C-76.67 19.7625 -76.34 16.4625 -76 13.0625 C-66.22321429 9.98214286 -66.22321429 9.98214286 -61.9375 9.4375 C-59.11519239 9.38164978 -59.11519239 9.38164978 -58 8.0625 C-55.65147862 7.71007372 -53.29562019 7.40611581 -50.9375 7.125 C-44.94178753 6.40433536 -44.94178753 6.40433536 -39.0625 5.0625 C-36.37654409 4.35508489 -33.75785781 3.85177804 -31 3.52734375 C-30.27288818 3.43904297 -29.54577637 3.35074219 -28.79663086 3.25976562 C-27.32143868 3.0882429 -25.84568437 2.92147984 -24.36938477 2.75976562 C-20.8877812 2.64421294 -20.8877812 2.64421294 -18 1.0625 C-11.97005228 0.0826335 -6.09850058 -0.06089133 0 0 Z " fill="#B5D0FF" transform="translate(211,306.9375)"/>
<path d="M0 0 C2.68255632 8.78634389 -3.26954137 20.50639776 -6 29 C-6.66 29 -7.32 29 -8 29 C-8.33 30.98 -8.66 32.96 -9 35 C8.49 35 25.98 35 44 35 C44 35.33 44 35.66 44 36 C26.18 36 8.36 36 -10 36 C-8.87707062 25.89363557 -8.87707062 25.89363557 -7.5625 21.875 C-7.294375 21.03710938 -7.02625 20.19921875 -6.75 19.3359375 C-6.5025 18.56507813 -6.255 17.79421875 -6 17 C-5.690625 15.845 -5.38125 14.69 -5.0625 13.5 C-3.65981605 8.87939403 -1.84779998 4.45804171 0 0 Z " fill="#B0CBFF" transform="translate(121,465)"/>
<path d="M0 0 C1.06528748 2.73019786 1.07998186 3.79298812 0.00390625 6.578125 C-0.47175781 7.45984375 -0.94742187 8.3415625 -1.4375 9.25 C-2.14712891 10.58804687 -2.14712891 10.58804687 -2.87109375 11.953125 C-3.24363281 12.62859375 -3.61617188 13.3040625 -4 14 C-4.66 14 -5.32 14 -6 14 C-6.185625 15.5778125 -6.185625 15.5778125 -6.375 17.1875 C-7 21 -7 21 -8 23.3125 C-9.52873106 27.42096472 -9.67909326 31.65086919 -10 36 C-8.35 36.66 -6.7 37.32 -5 38 C-4.731875 37.41605469 -4.46375 36.83210938 -4.1875 36.23046875 C-0.18730648 28.71694738 7.29446794 22.06431792 14 17 C14.99 17 15.98 17 17 17 C17 16.34 17 15.68 17 15 C18.65 15 20.3 15 22 15 C19.71072116 16.83142307 17.58376301 18.20387118 14.9375 19.5 C7.10473295 23.87414264 0.71947637 31.50631153 -4 39 C-10.875 38.125 -10.875 38.125 -12 37 C-11.93535361 34.89311528 -11.79792222 32.78827135 -11.625 30.6875 C-11.53476562 29.53636719 -11.44453125 28.38523437 -11.3515625 27.19921875 C-11.07519056 24.6842341 -10.70497191 22.41960698 -10 20 C-9.34 20 -8.68 20 -8 20 C-7.67 17.69 -7.34 15.38 -7 13 C-6.34 13 -5.68 13 -5 13 C-4.89042969 12.31292969 -4.78085937 11.62585938 -4.66796875 10.91796875 C-4.50941406 10.01691406 -4.35085938 9.11585938 -4.1875 8.1875 C-4.03667969 7.29417969 -3.88585937 6.40085937 -3.73046875 5.48046875 C-2.94604607 2.81678744 -2.11372201 1.74309678 0 0 Z " fill="#A4C6FF" transform="translate(370,300)"/>
<path d="M0 0 C0.66 0.33 1.32 0.66 2 1 C0 4 0 4 -2.6015625 4.73046875 C-4.09816406 4.95669922 -4.09816406 4.95669922 -5.625 5.1875 C-6.62789062 5.34605469 -7.63078125 5.50460937 -8.6640625 5.66796875 C-9.82035156 5.83232422 -9.82035156 5.83232422 -11 6 C-11 6.99 -11 7.98 -11 9 C-21.36700871 13.0177113 -30.35469839 13.50402449 -41.3125 13.25 C-42.84307522 13.2298758 -44.3736764 13.21163564 -45.90429688 13.1953125 C-49.60341686 13.15185089 -53.30153394 13.08316191 -57 13 C-57 12.34 -57 11.68 -57 11 C-57.66 10.67 -58.32 10.34 -59 10 C-58.05793701 10.00523682 -57.11587402 10.01047363 -56.14526367 10.01586914 C-52.59854501 10.03306826 -49.05187167 10.04552583 -45.50512695 10.05493164 C-43.97972914 10.05991292 -42.45433599 10.06670038 -40.92895508 10.07543945 C-32.22729551 10.12398826 -23.65612974 10.0402367 -15 9 C-15 8.34 -15 7.68 -15 7 C-14.01 7 -13.02 7 -12 7 C-12 6.34 -12 5.68 -12 5 C-9.03 4.34 -6.06 3.68 -3 3 C-3 2.34 -3 1.68 -3 1 C-2.01 0.67 -1.02 0.34 0 0 Z " fill="#5BA7FF" transform="translate(588,496)"/>
<path d="M0 0 C0.66 0 1.32 0 2 0 C1.43362162 4.41775137 0.27084074 8.37579551 -1.171875 12.5625 C-2.03807198 15.11206094 -2.84283539 17.67345774 -3.625 20.25 C-3.86476563 21.03890625 -4.10453125 21.8278125 -4.3515625 22.640625 C-5.02148529 25.07817538 -5.53319687 27.51625502 -6 30 C-6.66 30 -7.32 30 -8 30 C-7.979375 31.175625 -7.95875 32.35125 -7.9375 33.5625 C-7.93052739 37.47413467 -8.35749657 41.14497944 -9 45 C-9.66 45 -10.32 45 -11 45 C-11 50.61 -11 56.22 -11 62 C-11.33 62 -11.66 62 -12 62 C-12.05855176 58.47923768 -12.0937806 54.9586024 -12.125 51.4375 C-12.14175781 50.44685547 -12.15851562 49.45621094 -12.17578125 48.43554688 C-12.22008368 41.76803141 -11.54520576 36.70498198 -8.96875 30.52734375 C-7.71576956 27.25847947 -7.13745851 24.00269727 -6.5 20.5625 C-5.14224192 13.24979207 -2.98124789 6.77556338 0 0 Z " fill="#A9CAFF" transform="translate(572,381)"/>
<path d="M0 0 C0.66 0.33 1.32 0.66 2 1 C-0.19443997 5.01351521 -2.76046073 8.0297437 -6 11.25 C-7.299375 12.55710937 -7.299375 12.55710937 -8.625 13.890625 C-11 16 -11 16 -14 17 C-14.69658363 18.65438613 -15.36096883 20.32254318 -16 22 C-16.7115625 22.680625 -16.7115625 22.680625 -17.4375 23.375 C-19.84009644 25.87370029 -20.72831951 28.79052066 -22 32 C-22.99 32 -23.98 32 -25 32 C-25.12375 32.804375 -25.2475 33.60875 -25.375 34.4375 C-25.684375 35.7059375 -25.684375 35.7059375 -26 37 C-26.99 37.495 -26.99 37.495 -28 38 C-27.57576756 36.53775201 -27.13509755 35.08026588 -26.6875 33.625 C-26.32205078 32.40683594 -26.32205078 32.40683594 -25.94921875 31.1640625 C-25 29 -25 29 -22 27 C-20.3974252 24.55265708 -19.01494092 22.0271615 -17.60546875 19.46484375 C-14.5907736 14.09154413 -12.26893913 11.11346403 -7 8 C-6.30062468 6.68352881 -5.63270867 5.34977849 -5 4 C-2.375 1.75 -2.375 1.75 0 0 Z " fill="#BBD5FF" transform="translate(399,262)"/>
<path d="M0 0 C1.08414973 3.24517301 0.91989484 4.95932226 -0.3125 8.125 C-1.50259637 11.40988139 -2.37353322 14.56246435 -3 18 C-3.89500327 22.83908548 -5.32563513 27.37875295 -7 32 C-5.68 31.34 -4.36 30.68 -3 30 C-3.53648235 34.19499396 -4.85362017 36.54248558 -7.5 39.8125 C-8.1290625 40.60269531 -8.758125 41.39289063 -9.40625 42.20703125 C-9.9321875 42.79871094 -10.458125 43.39039063 -11 44 C-11.33 44 -11.66 44 -12 44 C-12.37865232 39.96104193 -11.29010235 37.15344776 -9.84887695 33.43017578 C-7.84208728 27.68511269 -6.64474381 21.67262411 -5.25 15.75585938 C-3.91441151 10.22916638 -2.44840059 5.13726909 0 0 Z " fill="#62A7FF" transform="translate(208,349)"/>
<path d="M0 0 C2.25259399 -0.36076355 2.25259399 -0.36076355 5.09228516 -0.34057617 C6.15323395 -0.34034958 7.21418274 -0.34012299 8.30728149 -0.33988953 C10.03076309 -0.31666374 10.03076309 -0.31666374 11.7890625 -0.29296875 C13.54940323 -0.28660149 13.54940323 -0.28660149 15.3453064 -0.28010559 C19.10543454 -0.26326976 22.86503297 -0.22560777 26.625 -0.1875 C29.16926311 -0.17245954 31.7135346 -0.15877003 34.2578125 -0.14648438 C40.50539005 -0.11335017 46.75265719 -0.06310206 53 0 C53 0.33 53 0.66 53 1 C35.84 1 18.68 1 1 1 C0.67 2.65 0.34 4.3 0 6 C-1.02660628 9.38502611 -2.09682279 12.75130258 -3.18359375 16.1171875 C-4.33338471 19.72304081 -5.35849963 23.2676342 -6 27 C-6.66 27 -7.32 27 -8 27 C-7.01 22.05 -6.02 17.1 -5 12 C-4.34 12 -3.68 12 -3 12 C-2.95101563 11.38511719 -2.90203125 10.77023437 -2.8515625 10.13671875 C-2.77679688 9.32847656 -2.70203125 8.52023437 -2.625 7.6875 C-2.55539062 6.88699219 -2.48578125 6.08648437 -2.4140625 5.26171875 C-2 3 -2 3 0 0 Z " fill="#61A5FF" transform="translate(489,311)"/>
<path d="M0 0 C0.87011719 0.00451172 1.74023438 0.00902344 2.63671875 0.01367188 C4.75784293 0.0253264 6.8789311 0.04325643 9 0.0625 C8.67 1.3825 8.34 2.7025 8 4.0625 C8 3.0725 8 2.0825 8 1.0625 C5.29087219 1.17714015 2.58320339 1.30387154 -0.125 1.4375 C-1.26582031 1.48390625 -1.26582031 1.48390625 -2.4296875 1.53125 C-5.77927839 1.7045047 -8.62015063 1.93500548 -11.81640625 3.0078125 C-16.70169726 4.62625247 -21.71227822 4.99476889 -26.8125 5.5625 C-33.3176521 6.29468162 -39.6688942 7.11625679 -46.04125977 8.62988281 C-48.70251954 9.21766199 -51.34750834 9.4812981 -54.0625 9.6875 C-55.00222656 9.76226562 -55.94195312 9.83703125 -56.91015625 9.9140625 C-57.59980469 9.96304687 -58.28945312 10.01203125 -59 10.0625 C-58.67 9.4025 -58.34 8.7425 -58 8.0625 C-55.66060896 7.63769255 -53.30080414 7.32327839 -50.9375 7.0625 C-44.93978191 6.39019646 -44.93978191 6.39019646 -39.0625 5.0625 C-36.37662579 4.3547593 -33.75784428 3.85177644 -31 3.52734375 C-30.27288818 3.43904297 -29.54577637 3.35074219 -28.79663086 3.25976562 C-27.32143868 3.0882429 -25.84568437 2.92147984 -24.36938477 2.75976562 C-20.8877812 2.64421294 -20.8877812 2.64421294 -18 1.0625 C-11.97005228 0.0826335 -6.09850058 -0.06089133 0 0 Z " fill="#7BB2FF" transform="translate(211,306.9375)"/>
<path d="M0 0 C0 3 0 3 -1.796875 4.87890625 C-2.52390625 5.57886719 -3.2509375 6.27882813 -4 7 C-11.59500698 17.15570888 -10.66300186 27.90276613 -10 40 C-9.34 40 -8.68 40 -8 40 C-7.34 42.64 -6.68 45.28 -6 48 C-6.66 47.67 -7.32 47.34 -8 47 C-8 46.34 -8 45.68 -8 45 C-8.66 45 -9.32 45 -10 45 C-13.96367651 33.01459722 -13.96367651 22.98540278 -10 11 C-9.34 11 -8.68 11 -8 11 C-7.773125 10.278125 -7.54625 9.55625 -7.3125 8.8125 C-5.74730392 5.45850839 -3.70307284 3.49514416 -1 1 C-0.67 0.67 -0.34 0.34 0 0 Z " fill="#C1D6FF" transform="translate(363,447)"/>
<path d="M0 0 C0.66 0.33 1.32 0.66 2 1 C1.01 1.33 0.02 1.66 -1 2 C-1.165 2.66 -1.33 3.32 -1.5 4 C-1.665 4.66 -1.83 5.32 -2 6 C-2.99 6.33 -3.98 6.66 -5 7 C-5.70686954 8.31246245 -6.36983587 9.64903169 -7 11 C-8.38867188 12.64746094 -8.38867188 12.64746094 -9.96875 14.234375 C-10.53980469 14.80800781 -11.11085937 15.38164062 -11.69921875 15.97265625 C-12.29347656 16.55917969 -12.88773438 17.14570313 -13.5 17.75 C-14.09425781 18.35199219 -14.68851563 18.95398438 -15.30078125 19.57421875 C-15.87183594 20.14269531 -16.44289062 20.71117187 -17.03125 21.296875 C-17.55267578 21.81604492 -18.07410156 22.33521484 -18.61132812 22.87011719 C-20 24 -20 24 -22 24 C-22.33 24.99 -22.66 25.98 -23 27 C-25.0625 27.6875 -25.0625 27.6875 -27 28 C-25.65662007 23.96986021 -23.30901479 22.56617473 -20 20 C-19.34 19.67 -18.68 19.34 -18 19 C-17.731875 18.236875 -17.46375 17.47375 -17.1875 16.6875 C-15.44658382 12.74753181 -12.68787698 10.7716009 -8.8125 9 C-6.84837905 8.13980633 -6.84837905 8.13980633 -6.0625 6.125 C-4.63101256 3.26202511 -2.54558673 1.87569549 0 0 Z " fill="#C2D9FF" transform="translate(255,320)"/>
<path d="M0 0 C1.31478333 0.00212242 1.31478333 0.00212242 2.65612793 0.00428772 C5.42703821 0.00983857 8.19786457 0.02238164 10.96875 0.03515625 C12.85937382 0.04017761 14.74999893 0.0447394 16.640625 0.04882812 C21.25003183 0.05979185 25.85937673 0.077022 30.46875 0.09765625 C30.13875 1.74765625 29.80875 3.39765625 29.46875 5.09765625 C28.97375 3.11765625 28.97375 3.11765625 28.46875 1.09765625 C16.25875 1.09765625 4.04875 1.09765625 -8.53125 1.09765625 C-8.53125 1.75765625 -8.53125 2.41765625 -8.53125 3.09765625 C-14.33891296 4.60334665 -19.5294363 5.31590402 -25.53125 5.09765625 C-17.66983103 -0.14328973 -9.13941572 -0.05658312 0 0 Z " fill="#ACCAFF" transform="translate(417.53125,309.90234375)"/>
<path d="M0 0 C0.33 0 0.66 0 1 0 C1.18362281 4.68238159 0.7159535 7.71011626 -1 12 C-1.42573106 14.09449169 -1.80000494 16.20003211 -2.125 18.3125 C-2.29257812 19.38113281 -2.46015625 20.44976562 -2.6328125 21.55078125 C-2.75398437 22.35902344 -2.87515625 23.16726563 -3 24 C-3.66 24 -4.32 24 -5 24 C-5.33 27.3 -5.66 30.6 -6 34 C-6.66 34 -7.32 34 -8 34 C-8.05607422 35.01320313 -8.05607422 35.01320313 -8.11328125 36.046875 C-8.17902344 36.93890625 -8.24476563 37.8309375 -8.3125 38.75 C-8.39951172 40.07257813 -8.39951172 40.07257813 -8.48828125 41.421875 C-9.0641181 44.32303774 -10.07596148 45.79225607 -12 48 C-11.152874 42.63486869 -10.08318169 37.3212615 -9 32 C-8.34 32 -7.68 32 -7 32 C-6.95101562 31.26394531 -6.90203125 30.52789062 -6.8515625 29.76953125 C-6.73941406 28.30580078 -6.73941406 28.30580078 -6.625 26.8125 C-6.55539062 25.84957031 -6.48578125 24.88664062 -6.4140625 23.89453125 C-5.99428908 20.96007741 -5.13754208 18.72320679 -4 16 C-3.58340865 14.2384872 -3.20714882 12.46686867 -2.875 10.6875 C-2.70742188 9.80449219 -2.53984375 8.92148437 -2.3671875 8.01171875 C-2.24601563 7.34785156 -2.12484375 6.68398438 -2 6 C-1.34 6 -0.68 6 0 6 C0 4.02 0 2.04 0 0 Z " fill="#7CB2FF" transform="translate(666,251)"/>
<path d="M0 0 C0.66 0 1.32 0 2 0 C2.33 2.31 2.66 4.62 3 7 C3.66 7 4.32 7 5 7 C5 14.26 5 21.52 5 29 C4.34 29 3.68 29 3 29 C2.95101563 29.91523438 2.90203125 30.83046875 2.8515625 31.7734375 C2.77679688 32.96195312 2.70203125 34.15046875 2.625 35.375 C2.55539062 36.55835938 2.48578125 37.74171875 2.4140625 38.9609375 C2 42 2 42 0 44 C0.30872329 41.39533457 0.62181723 38.79132309 0.9375 36.1875 C1.02451172 35.44951172 1.11152344 34.71152344 1.20117188 33.95117188 C1.58216546 30.83266879 2.00369374 27.98891878 3 25 C3.22560676 22.60745424 3.40848595 20.21071877 3.5625 17.8125 C3.64628906 16.54019531 3.73007812 15.26789063 3.81640625 13.95703125 C3.87699219 12.98121094 3.93757813 12.00539063 4 11 C3.34 11 2.68 11 2 11 C1.34 7.37 0.68 3.74 0 0 Z " fill="#A5C6FF" transform="translate(313,320)"/>
<path d="M0 0 C0.94369975 3.16678078 1.09237641 5.94925856 1.02734375 9.24609375 C1.01509766 10.24833984 1.00285156 11.25058594 0.99023438 12.28320312 C0.95514226 14.38223159 0.91609414 16.48119773 0.87304688 18.58007812 C0.86208984 19.58361328 0.85113281 20.58714844 0.83984375 21.62109375 C0.82300537 22.5330249 0.80616699 23.44495605 0.78881836 24.38452148 C1.02205291 27.2731246 1.86432259 29.34900829 3 32 C3.3813074 34.32597511 3.72460254 36.65912158 4 39 C1.05855406 37.52927703 0.702672 35.19551694 -0.3359375 32.2265625 C-3.41095988 21.91619334 -2.78404516 10.26616654 0 0 Z " fill="#8DB9FF" transform="translate(496,448)"/>
<path d="M0 0 C0.33 0 0.66 0 1 0 C0.83300785 7.30211124 -0.700452 13.71184851 -3.12060547 20.55712891 C-4.81084296 25.34140229 -6.03956648 30.0232081 -7 35 C-7.66 35 -8.32 35 -9 35 C-9.33 36.32 -9.66 37.64 -10 39 C-9.56848454 33.56290525 -8.79334343 28.85576257 -6.9609375 23.73046875 C-5.68180302 20.09585492 -4.52767986 16.42635017 -3.375 12.75 C-3.15682617 12.06413818 -2.93865234 11.37827637 -2.71386719 10.67163086 C-1.60420528 7.13771145 -0.6366908 3.65036061 0 0 Z " fill="#6BABFF" transform="translate(241,420)"/>
<path d="M0 0 C0.33 0 0.66 0 1 0 C1 10.89 1 21.78 1 33 C0.505 31.515 0.505 31.515 0 30 C-0.66 30 -1.32 30 -2 30 C-2 22.41 -2 14.82 -2 7 C-1.34 7 -0.68 7 0 7 C0 4.69 0 2.38 0 0 Z " fill="#399AFF" transform="translate(563,419)"/>
<path d="M0 0 C1.08784335 3.31395986 1.07262544 3.83580335 -0.4375 7.25 C-0.953125 8.1575 -1.46875 9.065 -2 10 C-2.66 10 -3.32 10 -4 10 C-4.33 12.31 -4.66 14.62 -5 17 C-5.66 17 -6.32 17 -7 17 C-7.103125 17.680625 -7.20625 18.36125 -7.3125 19.0625 C-8.14725019 22.62915989 -9.49472754 25.66222194 -11 29 C-11.66 29 -12.32 29 -13 29 C-11.14506608 23.28062041 -9.06896109 17.64444725 -7 12 C-6.34 12 -5.68 12 -5 12 C-4.87753906 11.42765625 -4.75507813 10.8553125 -4.62890625 10.265625 C-3.97237132 7.90046809 -3.06276488 5.92793203 -1.9375 3.75 C-1.57527344 3.04359375 -1.21304687 2.3371875 -0.83984375 1.609375 C-0.56269531 1.07828125 -0.28554688 0.5471875 0 0 Z " fill="#A5C7FF" transform="translate(432,350)"/>
<path d="M0 0 C1.06528748 2.73019786 1.07998186 3.79298812 0.00390625 6.578125 C-0.47175781 7.45984375 -0.94742187 8.3415625 -1.4375 9.25 C-2.14712891 10.58804687 -2.14712891 10.58804687 -2.87109375 11.953125 C-3.24363281 12.62859375 -3.61617188 13.3040625 -4 14 C-4.66 14 -5.32 14 -6 14 C-6.103125 15.010625 -6.20625 16.02125 -6.3125 17.0625 C-7.03704767 21.21218208 -8.22269266 24.21356263 -10 28 C-10.98120464 24.94736336 -10.98120464 23.05263664 -10 20 C-9.34 20 -8.68 20 -8 20 C-7.67 17.69 -7.34 15.38 -7 13 C-6.34 13 -5.68 13 -5 13 C-4.89042969 12.31292969 -4.78085937 11.62585938 -4.66796875 10.91796875 C-4.50941406 10.01691406 -4.35085938 9.11585938 -4.1875 8.1875 C-4.03667969 7.29417969 -3.88585937 6.40085937 -3.73046875 5.48046875 C-2.94604607 2.81678744 -2.11372201 1.74309678 0 0 Z " fill="#85B7FF" transform="translate(370,300)"/>
<path d="M0 0 C1.33332095 2.6666419 0.67102033 4.16680303 0 7 C-0.66 7 -1.32 7 -2 7 C-2.1546875 8.918125 -2.1546875 8.918125 -2.3125 10.875 C-2.95463448 16.66338368 -3.76062254 23.76062254 -8 28 C-7.39154081 22.46177962 -6.47092338 17.15424195 -5.125 11.75 C-4.96386719 11.05648438 -4.80273438 10.36296875 -4.63671875 9.6484375 C-3.68995123 5.81733172 -2.660203 2.94902505 0 0 Z " fill="#9CC3FF" transform="translate(294,427)"/>
<path d="M0 0 C1.1127832 -0.01836914 1.1127832 -0.01836914 2.24804688 -0.03710938 C6.39601276 -0.04819032 9.7060305 0.14629308 13.4375 2.1875 C13.9325 3.1775 13.9325 3.1775 14.4375 4.1875 C13.2 3.8575 11.9625 3.5275 10.6875 3.1875 C-0.46946141 0.78553327 -9.90894648 2.65732842 -20.5625 6.1875 C-20.8925 5.5275 -21.2225 4.8675 -21.5625 4.1875 C-18.0975 3.6925 -18.0975 3.6925 -14.5625 3.1875 C-14.5625 2.5275 -14.5625 1.8675 -14.5625 1.1875 C-9.66173636 0.21666727 -4.97287688 0.00434312 0 0 Z " fill="#85B6FF" transform="translate(290.5625,306.8125)"/>
<path d="M0 0 C1.13732426 3.40401948 0.83989957 5.77456664 0.0625 9.25 C-0.13214844 10.14203125 -0.32679688 11.0340625 -0.52734375 11.953125 C-0.68332031 12.62859375 -0.83929688 13.3040625 -1 14 C-1.66 14 -2.32 14 -3 14 C-3.33 17.3 -3.66 20.6 -4 24 C-4.66 24 -5.32 24 -6 24 C-6.12375 25.11375 -6.2475 26.2275 -6.375 27.375 C-7 31 -7 31 -9 33 C-7.36051452 24.10820229 -5.39664077 15.396496 -2 7 C-1.31320058 4.67251306 -0.64238957 2.34013344 0 0 Z " fill="#62A7FF" transform="translate(174,467)"/>
<path d="M0 0 C2 3 2 3 3.0625 5.375 C6.04692036 9.41840823 9.20282084 11.48110422 14 13 C19.32043827 13.57631532 24.66882169 13.29435954 30 13 C28 15 28 15 24.6640625 15.23046875 C23.31763807 15.22647737 21.97121246 15.21172163 20.625 15.1875 C19.95210937 15.18685547 19.27921875 15.18621094 18.5859375 15.18554688 C15.25470816 15.15603795 12.18496038 15.02082064 9 14 C9 13.34 9 12.68 9 12 C8.236875 11.731875 7.47375 11.46375 6.6875 11.1875 C2.66089965 9.4083045 2.66089965 9.4083045 1 7 C0.3125 3.3125 0.3125 3.3125 0 0 Z " fill="#BBD2FF" transform="translate(562,449)"/>
<path d="M0 0 C2.5047062 8.07272215 -2.35471669 17.41086197 -5 25 C-5.33 25 -5.66 25 -6 25 C-6.32432499 15.75673789 -3.50322199 8.4519482 0 0 Z " fill="#B3CFFF" transform="translate(121,465)"/>
<path d="M0 0 C0.33 0.66 0.66 1.32 1 2 C0.67 2.99 0.34 3.98 0 5 C-0.66 5 -1.32 5 -2 5 C-2.12117187 5.89203125 -2.24234375 6.7840625 -2.3671875 7.703125 C-2.61855469 9.45882813 -2.61855469 9.45882813 -2.875 11.25 C-3.03742187 12.41015625 -3.19984375 13.5703125 -3.3671875 14.765625 C-3.92591703 17.6213537 -4.63258209 19.48571545 -6 22 C-6.38290462 23.99110401 -6.72604615 25.99100513 -7 28 C-7.66 28 -8.32 28 -9 28 C-8 19.42857143 -8 19.42857143 -7 16 C-6.34 16 -5.68 16 -5 16 C-4.93941406 15.39671875 -4.87882812 14.7934375 -4.81640625 14.171875 C-4.69072266 12.97304688 -4.69072266 12.97304688 -4.5625 11.75 C-4.48128906 10.96109375 -4.40007812 10.1721875 -4.31640625 9.359375 C-4.02365007 7.17635361 -3.57935581 5.1226818 -3 3 C-2.34 3 -1.68 3 -1 3 C-0.67 2.01 -0.34 1.02 0 0 Z " fill="#8ABAFF" transform="translate(516,384)"/>
<path d="M0 0 C1.3609623 2.7219246 0.70366248 4.1831957 0.0625 7.125 C-0.13214844 8.03507812 -0.32679688 8.94515625 -0.52734375 9.8828125 C-0.68332031 10.58148438 -0.83929688 11.28015625 -1 12 C-1.66 12 -2.32 12 -3 12 C-3.33 14.31 -3.66 16.62 -4 19 C-4.66 19 -5.32 19 -6 19 C-6.33 20.98 -6.66 22.96 -7 25 C-8.28308066 21.10770161 -7.37905053 18.93763706 -5.8359375 15.171875 C-4.55756728 11.85050189 -3.80409089 8.46377613 -3 5 C-2.34 5 -1.68 5 -1 5 C-0.67 3.35 -0.34 1.7 0 0 Z " fill="#B2CEFF" transform="translate(454,418)"/>
<path d="M0 0 C0.33 0 0.66 0 1 0 C0.32969861 5.61848128 -0.9232701 10.9273041 -2.4375 16.375 C-2.65470703 17.19355469 -2.87191406 18.01210938 -3.09570312 18.85546875 C-3.66642486 20.92240694 -4.32632645 22.96428865 -5 25 C-5.66 25.33 -6.32 25.66 -7 26 C-4.29384966 8.14350797 -4.29384966 8.14350797 0 0 Z " fill="#C2D7FF" transform="translate(129,439)"/>
<path d="M0 0 C0.33 0.66 0.66 1.32 1 2 C0.0625 4.125 0.0625 4.125 -1 6 C-1.66 6 -2.32 6 -3 6 C-3.66 8.64 -4.32 11.28 -5 14 C-5.66 14 -6.32 14 -7 14 C-7.33 15.65 -7.66 17.3 -8 19 C-8.66 19 -9.32 19 -10 19 C-10.33 20.65 -10.66 22.3 -11 24 C-11.66 23.67 -12.32 23.34 -13 23 C-11.35 19.7 -9.7 16.4 -8 13 C-7.34 13 -6.68 13 -6 13 C-5.89042969 12.36191406 -5.78085938 11.72382813 -5.66796875 11.06640625 C-5.50941406 10.24011719 -5.35085937 9.41382813 -5.1875 8.5625 C-5.03667969 7.73878906 -4.88585937 6.91507812 -4.73046875 6.06640625 C-4.36888672 5.04353516 -4.36888672 5.04353516 -4 4 C-3.01 3.67 -2.02 3.34 -1 3 C-0.67 2.01 -0.34 1.02 0 0 Z " fill="#51A1FF" transform="translate(202,402)"/>
<path d="M0 0 C2.17980739 4.35961477 -0.66464861 10.93476618 -2.0625 15.375 C-2.371875 16.24125 -2.68125 17.1075 -3 18 C-3.34976758 19.32911682 -3.69096017 20.66082739 -4 22 C-4.66 22 -5.32 22 -6 22 C-5.13371161 13.88424564 -4.23353847 7.05589744 0 0 Z " fill="#B8D2FF" transform="translate(257,372)"/>
<path d="M0 0 C0 0.99 0 1.98 0 3 C-0.58265625 3.57234375 -1.1653125 4.1446875 -1.765625 4.734375 C-4.5483213 7.55599013 -6.07527541 10.71367168 -7.75 14.25 C-8.06582031 14.8996875 -8.38164062 15.549375 -8.70703125 16.21875 C-9.47873965 17.80893701 -10.24040275 19.40399229 -11 21 C-12.22419163 17.06204091 -11.48320272 14.83887763 -10 11 C-9.34 11 -8.68 11 -8 11 C-7.773125 10.278125 -7.54625 9.55625 -7.3125 8.8125 C-5.74730392 5.45850839 -3.70307284 3.49514416 -1 1 C-0.67 0.67 -0.34 0.34 0 0 Z " fill="#95BFFF" transform="translate(363,447)"/>
<path d="M0 0 C1.32 0.66 2.64 1.32 4 2 C4.45805991 7.61123396 3.55278776 12.51383595 2.125 17.9375 C1.95129883 18.61240479 1.77759766 19.28730957 1.59863281 19.98266602 C1.13287214 21.67503024 0.57323845 23.34095589 0 25 C-0.66 25.33 -1.32 25.66 -2 26 C-1.54873895 23.10290403 -1.08927369 20.20751428 -0.625 17.3125 C-0.49867188 16.49587891 -0.37234375 15.67925781 -0.2421875 14.83789062 C0.43608151 10.64957949 1.18402205 6.87671814 3 3 C2.34 3 1.68 3 1 3 C0.67 2.01 0.34 1.02 0 0 Z " fill="#5FA6FF" transform="translate(258,347)"/>
<path d="M0 0 C0.33 0 0.66 0 1 0 C0.88487847 1.72985242 0.75744323 3.45888751 0.625 5.1875 C0.55539063 6.15042969 0.48578125 7.11335938 0.4140625 8.10546875 C-0.00406311 11.02840345 -0.83317285 13.30171222 -2 16 C-2.36871088 17.65919896 -2.71281674 19.3247643 -3 21 C-3.66 21 -4.32 21 -5 21 C-5.33 21.99 -5.66 22.98 -6 24 C-5.86464844 23.33097656 -5.72929687 22.66195313 -5.58984375 21.97265625 C-5.15366379 19.77442479 -4.73127364 17.57344693 -4.31640625 15.37109375 C-4.06520999 14.05987556 -3.81390582 12.74867803 -3.5625 11.4375 C-3.44068359 10.77814453 -3.31886719 10.11878906 -3.19335938 9.43945312 C-2.52783327 6.00837292 -1.77836866 3.0255363 0 0 Z " fill="#A2C5FF" transform="translate(215,321)"/>
<path d="M0 0 C0.33 0 0.66 0 1 0 C1.32230346 5.17297057 0.21620813 9.08817084 -1.5 13.875 C-1.85771484 14.90753906 -1.85771484 14.90753906 -2.22265625 15.9609375 C-2.80688039 17.64350304 -3.40230111 19.32217383 -4 21 C-4.33 21 -4.66 21 -5 21 C-4.41509121 14.85845775 -3.45933748 8.99320151 -2 3 C-1.34 3 -0.68 3 0 3 C0 2.01 0 1.02 0 0 Z " fill="#B0CCFF" transform="translate(444,316)"/>
<path d="M0 0 C0 0.99 0 1.98 0 3 C-0.6496875 3.61875 -0.6496875 3.61875 -1.3125 4.25 C-3.79323439 6.82261344 -4.68732152 9.68704954 -6 13 C-6.99 13 -7.98 13 -9 13 C-9.12375 13.804375 -9.2475 14.60875 -9.375 15.4375 C-9.684375 16.7059375 -9.684375 16.7059375 -10 18 C-10.66 18.33 -11.32 18.66 -12 19 C-11.57576756 17.53775201 -11.13509755 16.08026588 -10.6875 14.625 C-10.44386719 13.81289063 -10.20023437 13.00078125 -9.94921875 12.1640625 C-9 10 -9 10 -6 8 C-4.98133771 6.34467377 -3.98189187 4.67739862 -3 3 C-1.3125 1.1875 -1.3125 1.1875 0 0 Z " fill="#B0CEFF" transform="translate(383,281)"/>
<path d="M0 0 C0.66 0.33 1.32 0.66 2 1 C0 4 0 4 -2.6015625 4.73046875 C-4.09816406 4.95669922 -4.09816406 4.95669922 -5.625 5.1875 C-6.62789062 5.34605469 -7.63078125 5.50460937 -8.6640625 5.66796875 C-9.82035156 5.83232422 -9.82035156 5.83232422 -11 6 C-11 6.66 -11 7.32 -11 8 C-12.32 7.67 -13.64 7.34 -15 7 C-14.01 7 -13.02 7 -12 7 C-12 6.34 -12 5.68 -12 5 C-9.03 4.34 -6.06 3.68 -3 3 C-3 2.34 -3 1.68 -3 1 C-2.01 0.67 -1.02 0.34 0 0 Z " fill="#93BFFF" transform="translate(588,496)"/>
<path d="M0 0 C1.47353497 4.63110991 0.44872344 8.46233176 -1 13 C-2.625 15.5625 -2.625 15.5625 -4 17 C-3.58411954 10.80481527 -2.39748106 5.73310689 0 0 Z " fill="#67A9FF" transform="translate(578,364)"/>
<path d="M0 0 C0.66 0 1.32 0 2 0 C1.34 2.97 0.68 5.94 0 9 C-0.66 9 -1.32 9 -2 9 C-2.33 10.65 -2.66 12.3 -3 14 C-4.37095624 10.30962722 -3.60010967 8.29116165 -2.0625 4.75 C-1.68222656 3.85796875 -1.30195313 2.9659375 -0.91015625 2.046875 C-0.60980469 1.37140625 -0.30945313 0.6959375 0 0 Z " fill="#74AFFF" transform="translate(442,451)"/>
<path d="M0 0 C1.49507258 3.8871887 0.41245354 6.18637545 -1 10 C-1.55158591 11.78863781 -2.09273807 13.58051694 -2.625 15.375 C-2.88539063 16.24898438 -3.14578125 17.12296875 -3.4140625 18.0234375 C-3.60742188 18.67570312 -3.80078125 19.32796875 -4 20 C-5.52514951 16.07129209 -4.41014799 13.33282786 -3.125 9.4375 C-2.75632813 8.30183594 -2.38765625 7.16617187 -2.0078125 5.99609375 C-1.67523438 5.00738281 -1.34265625 4.01867187 -1 3 C-0.67 2.01 -0.34 1.02 0 0 Z " fill="#A5C6FF" transform="translate(250,394)"/>
<path d="M0 0 C0 3.78483609 -1.10582515 4.77407931 -3.4375 7.6875 C-4.39462891 8.89986328 -4.39462891 8.89986328 -5.37109375 10.13671875 C-5.90863281 10.75160156 -6.44617188 11.36648438 -7 12 C-7.33 12 -7.66 12 -8 12 C-8.25532751 8.93606987 -8.21861333 7.36766788 -6.625 4.6875 C-6.08875 4.130625 -5.5525 3.57375 -5 3 C-4.34 3 -3.68 3 -3 3 C-1.37485532 1.54166642 -1.37485532 1.54166642 0 0 Z " fill="#8EBAFF" transform="translate(204,381)"/>
<path d="M0 0 C1.46055379 3.84209373 0.49637507 6.39037478 -0.8125 10.1875 C-1.34810547 11.78658203 -1.34810547 11.78658203 -1.89453125 13.41796875 C-3 16 -3 16 -5 17 C-3.96232949 10.93267948 -2.66038099 5.5626148 0 0 Z " fill="#81B3FF" transform="translate(208,349)"/>
<path d="M0 0 C0.66 0.33 1.32 0.66 2 1 C0.17251097 3.46313739 -1.22976216 4.83428618 -4.26953125 5.48828125 C-6.51479346 5.72518293 -8.74455578 5.90361349 -11 6 C-8.66460191 4.44306794 -6.42031244 3.09799354 -3.9375 1.8125 C-2.89916016 1.26529297 -2.89916016 1.26529297 -1.83984375 0.70703125 C-1.23269531 0.47371094 -0.62554687 0.24039062 0 0 Z " fill="#83B7FF" transform="translate(412,499)"/>
<path d="M0 0 C0.33 0 0.66 0 1 0 C0.52013969 5.56890517 -0.29915181 10.67067568 -2 16 C-2.33 16 -2.66 16 -3 16 C-3.37851209 10.06997733 -2.10575375 5.52760359 0 0 Z " fill="#CCDDFF" transform="translate(175,458)"/>
<path d="M0 0 C0.33 0.66 0.66 1.32 1 2 C-0.5039544 4.79305817 -2.24016054 7.36024081 -4 10 C-4.66 9.67 -5.32 9.34 -6 9 C-4.68775452 5.06326356 -3.08089673 2.77280706 0 0 Z " fill="#61AAFF" transform="translate(226,368)"/>
<path d="M0 0 C0.33 0 0.66 0 1 0 C1 2.64 1 5.28 1 8 C0.34 8 -0.32 8 -1 8 C-1.33 10.31 -1.66 12.62 -2 15 C-2.33 15 -2.66 15 -3 15 C-2.5547115 9.72684667 -1.91626837 4.98229776 0 0 Z " fill="#88B7FF" transform="translate(114,486)"/>
<path d="M0 0 C2 2 2 2 2 5 C2.66 5 3.32 5 4 5 C4.66 7.64 5.32 10.28 6 13 C5.34 12.67 4.68 12.34 4 12 C4 11.34 4 10.68 4 10 C3.34 10 2.68 10 2 10 C1.34 6.7 0.68 3.4 0 0 Z " fill="#AAC9FF" transform="translate(351,482)"/>
<path d="M0 0 C0.33 0 0.66 0 1 0 C1 3.96 1 7.92 1 12 C0.34 12 -0.32 12 -1 12 C-1 13.65 -1 15.3 -1 17 C-1.33 17 -1.66 17 -2 17 C-2.25706972 11.08739655 -1.2982126 5.76081841 0 0 Z " fill="#83B5FF" transform="translate(155,336)"/>
<path d="M0 0 C0.75 1.625 0.75 1.625 1 4 C-0.8125 7.25 -0.8125 7.25 -3 10 C-3.66 10 -4.32 10 -5 10 C-3.66511872 6.40608886 -2.03977277 3.24509304 0 0 Z " fill="#C9DBFF" transform="translate(418,379)"/>
<path d="M0 0 C0.33 0.66 0.66 1.32 1 2 C2.32 1.34 3.64 0.68 5 0 C3.60667426 3.36720387 2.0210714 4.9859524 -1 7 C-1.04254356 5.00045254 -1.04080783 2.99958364 -1 1 C-0.67 0.67 -0.34 0.34 0 0 Z " fill="#3C9BFF" transform="translate(200,379)"/>
<path d="M0 0 C0.33 0 0.66 0 1 0 C1.125 5.75 1.125 5.75 0 8 C-0.66 8 -1.32 8 -2 8 C-2.33 8.99 -2.66 9.98 -3 11 C-2.67 8.36 -2.34 5.72 -2 3 C-1.34 3 -0.68 3 0 3 C0 2.01 0 1.02 0 0 Z " fill="#6EACFF" transform="translate(444,316)"/>
<path d="M0 0 C0.33 0 0.66 0 1 0 C0.88541307 1.43836751 0.75790884 2.87570966 0.625 4.3125 C0.55539063 5.11300781 0.48578125 5.91351563 0.4140625 6.73828125 C0 9 0 9 -2 12 C-2.28571429 3.42857143 -2.28571429 3.42857143 0 0 Z " fill="#C8DAFF" transform="translate(199,375)"/>
<path d="M0 0 C-1.32 0.33 -2.64 0.66 -4 1 C-4 1.66 -4 2.32 -4 3 C-6.31 3.33 -8.62 3.66 -11 4 C-7.64191281 0.32209498 -4.88401581 -0.13200043 0 0 Z " fill="#6AABFF" transform="translate(258,346)"/>
<path d="M0 0 C0.66 0.33 1.32 0.66 2 1 C1.01 1.33 0.02 1.66 -1 2 C-1.73323796 4.01508358 -1.73323796 4.01508358 -2 6 C-3.32 6.33 -4.64 6.66 -6 7 C-4.77065985 3.31197956 -3.06140622 2.27643027 0 0 Z " fill="#9EC3FF" transform="translate(255,320)"/>
<path d="M0 0 C0 3 0 3 -2 6 C-4.625 7.1875 -4.625 7.1875 -7 8 C-5.50902342 4.2047869 -3.24299151 2.38957269 0 0 Z " fill="#B3CFFF" transform="translate(393,416)"/>
<path d="M0 0 C0 3.10551666 -0.5393715 4.35261084 -2 7 C-2.99 7 -3.98 7 -5 7 C-3.70700306 4.11562221 -2.34058637 2.12780579 0 0 Z " fill="#5FA8FF" transform="translate(311,467)"/>
<path d="M0 0 C0.33 0.66 0.66 1.32 1 2 C0.0625 4.125 0.0625 4.125 -1 6 C-1.66 6 -2.32 6 -3 6 C-3 6.66 -3 7.32 -3 8 C-3.66 8 -4.32 8 -5 8 C-4.34 6.35 -3.68 4.7 -3 3 C-2.34 3 -1.68 3 -1 3 C-0.67 2.01 -0.34 1.02 0 0 Z " fill="#81B5FF" transform="translate(202,402)"/>
</g>
</svg>
